<svg width="671" height="664" viewBox="0 0 671 664" fill="none" xmlns="http://www.w3.org/2000/svg">
<path d="M158.774 181.379L132.435 196.236L162.528 192.912C163.046 192.912 211.39 187.945 244.013 219.737C237.542 222.314 231.21 225.174 225.016 228.319L223.999 228.818L223.232 229.649C189.676 266.199 169.766 320.411 164.954 387.569C170.699 389.314 179.7 391.724 190.505 394.156C191.284 380.504 192.828 366.907 195.13 353.429L215.185 377.449L199.444 396.15C204.048 397.023 208.839 397.813 213.796 398.457L223.336 387.132L234.39 400.244C239.761 400.463 245.14 400.4 250.504 400.057L231.486 377.491L260.522 342.977L289.557 377.491L273.753 396.192C281.695 394.141 289.446 391.409 296.919 388.026L297.687 387.112L298.039 387.527C302.187 385.615 305.962 383.621 309.384 381.667L305.837 377.512L334.872 342.998L363.908 377.512L360.444 381.667C363.866 383.641 367.641 385.616 371.789 387.548L372.058 387.215L372.68 387.964C380.174 391.406 387.953 394.187 395.929 396.275L380.209 377.574L409.244 343.06L438.279 377.574L419.261 400.119C424.619 400.466 429.99 400.543 435.355 400.348L446.43 387.215L455.991 398.561C460.927 397.917 465.738 397.127 470.342 396.275L454.56 377.574L474.698 353.699C477.007 367.191 478.558 380.801 479.343 394.467C490.107 392.14 499.108 389.647 504.894 387.901C500.083 320.64 480.173 266.427 446.596 229.857L445.828 229.025L444.833 228.527C438.625 225.396 432.286 222.535 425.815 219.945C458.438 188.153 506.802 193.057 507.3 193.119L537.601 196.548L511.075 181.504C510.473 181.151 465.718 156.445 420.547 174.896C434.318 161.577 456.364 147.884 489.381 146.678L516.903 145.66L491.621 134.71C478.772 129.84 465.034 127.772 451.324 128.642C462.693 120.775 475.318 114.908 488.655 111.292L526.816 102.627L487.867 99.0116C446.886 95.2091 418.722 105.1 400.098 117.131C417.519 88.8507 449.873 73.6613 450.35 73.4951L473.516 62.9186L448.11 61.5888C426.252 60.3517 404.484 65.2448 385.249 75.7184C384.28 58.8079 386.604 41.87 392.093 25.849L397.132 13.0907L384.232 17.6621C371.478 22.1919 361.647 31.5632 354.264 41.641C351.236 17.1218 340.306 5.34019 339.746 4.71682L335.246 0L330.745 4.71682C330.165 5.34019 319.214 17.1842 316.228 41.641C308.865 31.5632 299.014 22.1919 286.28 17.6621L273.256 13.1946L278.316 25.849C283.774 41.8772 286.098 58.8091 285.16 75.7184C265.762 65.0639 243.762 60.0952 221.677 61.381L196.375 62.7108L219.333 73.3496C219.727 73.5367 252.164 88.7261 269.585 116.985C250.919 104.954 222.797 95.0844 181.836 98.887L143.199 102.482L181.027 111.167C194.366 114.779 206.992 120.647 218.358 128.518C204.642 127.649 190.897 129.717 178.041 134.585L152.967 145.536L180.467 146.554C213.485 147.759 235.531 161.452 249.302 174.772C204.11 156.32 159.355 181.026 158.774 181.379ZM239.948 249.95C243.951 247.997 248.036 246.189 252.164 244.506L252.516 244.921L223.481 279.435L221.2 276.734C226.524 267.197 232.806 258.229 239.948 249.971V249.95ZM223.357 367.766L198.262 337.949C199.299 333.377 200.439 328.91 201.684 324.546L223.481 298.76L252.516 333.377L223.357 367.766ZM231.507 289.097L260.542 254.584L289.578 289.097L260.542 323.59L231.507 289.097ZM297.127 120.144C301.074 121.286 304.683 123.376 307.642 126.232C321.433 139.115 326.307 165.941 327.966 182.938C320.965 173.107 311.721 165.092 301.005 159.561C302.373 146.306 301.075 132.91 297.189 120.165L297.127 120.144ZM325.498 202.47C320.645 202.678 315.834 203.01 310.981 203.467C306.967 190.356 299.918 178.38 290.407 168.517C308.243 174.418 319.899 192.08 325.498 202.47ZM313.905 229.483L327.033 245.046L297.998 279.56L268.963 245.046L276.18 236.485C288.53 233.064 301.152 230.721 313.905 229.483ZM297.915 367.891L268.88 333.377L297.915 298.863L326.95 333.377L297.915 367.891ZM306.065 289.222L335.101 254.708L364.136 289.222L335.101 323.715L306.065 289.222ZM329.377 228.506C331.305 228.506 333.234 228.506 335.184 228.506C337.133 228.506 339.041 228.506 340.991 228.506L335.184 235.384L329.377 228.506ZM344.869 202.47C350.448 191.935 362.103 174.335 379.898 168.517C370.387 178.377 363.344 190.354 359.345 203.467C354.492 203.066 349.667 202.733 344.869 202.47ZM394.332 236.298L401.55 244.859L372.515 279.373L343.479 244.859L356.628 229.296C369.377 230.563 381.992 232.933 394.332 236.381V236.298ZM369.196 159.416C358.484 164.952 349.242 172.965 342.235 182.792C343.936 165.795 348.768 138.97 362.56 126.087C365.523 123.226 369.14 121.135 373.095 119.998C369.166 132.799 367.84 146.259 369.196 159.582V159.416ZM372.432 367.621L343.396 333.107L372.432 298.593L401.467 333.107L372.432 367.621ZM380.582 288.952L409.617 254.438L438.653 288.952L409.617 323.445L380.582 288.952ZM472.105 337.782L446.948 367.621L417.913 333.107L446.948 298.593L468.683 324.38C469.907 328.91 471.068 333.377 472.105 337.949V337.782ZM430.398 249.804C437.57 258.061 443.873 267.037 449.209 276.588L446.948 279.29L417.913 244.776L418.266 244.36C422.31 246.21 426.396 248.017 430.398 249.971V249.804ZM476.71 181.899C457.277 185.182 432.763 193.764 413.579 214.958C407.122 212.797 400.575 210.906 393.938 209.285C421.356 178.699 453.875 177.535 476.71 182.065V181.899ZM452.444 140.777C425.965 150.177 404.038 169.302 391.097 194.283C387.179 198.047 383.52 202.074 380.147 206.335C377.409 205.815 374.671 205.358 371.851 204.943C377.174 188.928 387.923 175.284 402.234 166.377L419.075 157.629L406.465 155.655C420.28 146.884 436.113 141.818 452.444 140.944V140.777ZM455.763 111.354C445.565 116.94 436.283 124.06 428.241 132.466C413.203 136.933 399.226 144.412 387.157 154.45C385.213 154.64 383.281 154.938 381.37 155.343C381.37 154.803 381.37 154.304 381.37 153.764C385.249 147.177 405.532 116.736 455.763 111.354ZM423.513 75.4275C411.184 84.162 400.491 95.0089 391.927 107.469L383.175 106.887C374.715 106.175 366.266 108.374 359.221 113.121C375.692 93.5285 398.396 80.2179 423.513 75.4275ZM376.082 36.4462C372.638 51.7845 371.706 67.5818 373.323 83.2196C367.134 87.591 361.358 92.5224 356.068 97.9519C354.344 91.6212 351.938 85.497 348.892 79.6872C351.319 72.3315 359.905 49.3707 376.082 36.4462ZM335.184 20.2802C339.062 27.7607 343.811 41.5371 342.256 62.5446C341.551 64.103 340.908 65.5783 340.327 66.9913L339.56 66.1601L335.184 61.8173L330.787 66.1601L330.04 66.9913C329.46 65.5783 328.817 64.103 328.111 62.5446C326.556 41.5371 331.326 27.7607 335.184 20.2802ZM335.184 80.8924C339.912 88.3312 346.881 102.856 347.627 124.819C341.932 133.303 337.724 142.698 335.184 152.601C332.634 142.701 328.427 133.307 322.74 124.819C323.466 102.856 330.434 88.3105 335.184 80.8924ZM321.475 79.6872C318.428 85.4989 316.016 91.6225 314.278 97.9519C308.983 92.5282 303.208 87.5972 297.023 83.2196C298.651 67.5889 297.719 51.7967 294.265 36.467C310.4 49.3707 319.028 72.3523 321.475 79.6872ZM246.813 75.5314C271.933 80.3137 294.639 93.6259 311.105 113.224C304.073 108.467 295.626 106.267 287.172 106.991L278.42 107.593C269.879 95.0854 259.192 84.1947 246.854 75.4275L246.813 75.5314ZM214.459 111.396C264.981 116.632 285.077 146.99 289.018 153.847C289.018 154.387 289.018 154.907 289.018 155.447C287.114 155.04 285.189 154.742 283.252 154.554C271.182 144.482 257.198 136.968 242.146 132.466C234.073 124.025 224.748 116.883 214.501 111.292L214.459 111.396ZM217.881 141.047C234.207 141.982 250.018 147.105 263.798 155.925L251.355 157.878L267.946 166.647C282.262 175.549 293.013 189.194 298.33 205.213C295.571 205.628 292.834 206.085 290.034 206.605C286.666 202.339 283.008 198.312 279.083 194.553C266.213 169.564 244.353 150.403 217.923 140.944L217.881 141.047ZM276.346 209.618C269.73 211.239 263.176 213.13 256.747 215.291C237.688 194.241 213.381 185.639 194.031 182.314C197.937 181.544 201.884 180.996 205.852 180.673C233.726 178.346 257.369 188.091 276.387 209.452L276.346 209.618Z" fill="black"/>
<path d="M549.09 443.506C547.784 443.506 546.498 443.506 545.212 443.61H543.013L539.985 443.713L511.759 396.711C499.958 400.472 464.535 410.737 429.942 410.737C422.149 410.791 414.365 410.186 406.672 408.93C380.396 404.637 355.739 393.397 335.246 376.369C314.766 393.405 290.113 404.647 263.84 408.93C256.148 410.192 248.364 410.803 240.57 410.758C205.977 410.758 170.554 400.369 158.753 396.711L130.631 443.797L127.582 443.693H125.508C124.222 443.693 122.936 443.589 121.63 443.589C54.7657 443.589 0.366211 477.708 0.366211 519.681C0.366211 561.655 54.7657 595.795 121.63 595.795C122.936 595.795 124.201 595.795 125.487 595.67H127.686H130.734L158.857 642.755C170.658 638.994 206.081 628.729 240.674 628.729C248.467 628.676 256.252 629.281 263.944 630.537C290.217 634.82 314.87 646.061 335.35 663.098C355.842 646.069 380.5 634.829 406.776 630.537C414.468 629.282 422.252 628.677 430.046 628.729C464.639 628.729 500.062 638.994 511.863 642.755L539.985 595.67H543.034H545.233C546.518 595.67 547.784 595.795 549.09 595.795C615.954 595.795 670.354 561.655 670.354 519.681C670.354 477.708 615.871 443.506 549.09 443.506ZM619.376 548.73C601.271 560.096 575.657 566.621 549.09 566.621C548.426 566.621 547.514 566.621 546.518 566.517H543.926L540.877 566.413L523.83 565.873L515.057 580.564L498.32 608.594C475.996 602.887 453.082 599.819 430.046 599.452C420.601 599.368 411.167 600.077 401.84 601.571C378.203 605.584 355.579 614.196 335.246 626.921C314.922 614.192 292.304 605.579 268.672 601.571C259.39 600.049 249.997 599.306 240.591 599.348C217.555 599.715 194.641 602.783 172.317 608.49L155.58 580.46L146.745 565.79L129.697 566.33L126.586 566.434H124.056C123.061 566.434 122.148 566.538 121.484 566.538C94.9173 566.538 69.2833 560.013 51.1985 548.647C37.2409 539.899 29.2562 529.281 29.2562 519.557C29.2562 509.832 37.2409 499.172 51.1985 490.466C69.2833 479.1 94.9173 472.596 121.484 472.596H123.994H126.566L129.614 472.7L146.662 473.24L155.435 458.55L172.172 430.519C194.494 436.235 217.409 439.311 240.446 439.682C249.859 439.726 259.259 438.982 268.548 437.459C292.214 433.539 314.882 425.004 335.267 412.337C355.598 425.038 378.215 433.629 401.84 437.625C411.13 439.141 420.53 439.878 429.942 439.828C452.978 439.461 475.892 436.392 498.216 430.685L514.953 458.716L523.726 473.407L540.774 472.866L543.885 472.762H546.352H546.477H548.986C575.554 472.762 601.167 479.266 619.272 490.632C633.209 499.38 641.215 509.998 641.215 519.723C641.215 529.447 633.23 539.982 619.293 548.73H619.376Z" fill="black"/>
<path d="M222.423 492.482C222.423 477.936 216.658 470.622 204.961 470.622H185.528V537.011H200.502V516.627C207.926 516.336 211.514 515.338 214.874 512.762C219.831 508.772 222.423 501.832 222.423 492.482ZM200.502 502.518H199.693V484.835C200.256 484.757 200.825 484.722 201.393 484.731C205.852 484.731 207.843 487.308 207.843 493.043C207.843 499.733 205.645 502.518 200.502 502.518Z" fill="black"/>
<path d="M242.25 470.622H227.38V536.907H242.25V470.622Z" fill="black"/>
<path d="M266.059 513.24C265.988 505.474 265.49 497.719 264.566 490.009L264.462 489.095H265.167C265.861 494.802 266.984 500.45 268.527 505.988L277.86 536.907H293.02V470.622H278.835V491.983C278.835 494.061 279.726 505.011 280.535 510.975C280.722 512.367 280.929 513.842 281.116 515.338V516.232H280.535L280.432 515.442L279.623 511.058C278.441 504.201 277.839 500.939 276.056 493.687L270.207 470.622H251.77V537.011H265.955L266.059 513.24Z" fill="black"/>
<path d="M331.326 470.622H307.994L297.189 537.011H312.37L314.838 521.198H324.171L326.743 537.011H342.111L331.326 470.622ZM316.041 507.089L318.53 490.985C318.82 489.302 319.131 485.126 319.235 482.674H319.712C319.919 486.144 320.127 488.326 320.521 490.985L323.093 507.089H316.041Z" fill="black"/>
<path d="M365.712 470.622H346.279V537.011H361.253V516.627C368.698 516.336 372.266 515.338 375.646 512.762C380.603 508.876 383.175 501.936 383.175 492.585C383.175 477.874 377.43 470.622 365.712 470.622ZM361.253 502.518H360.465V484.835C361.021 484.757 361.583 484.723 362.145 484.731C366.604 484.731 368.595 487.308 368.595 493.043C368.657 499.733 366.417 502.518 361.253 502.518Z" fill="black"/>
<path d="M407.668 470.622H388.235V537.011H403.209V516.627C410.654 516.336 414.222 515.338 417.581 512.762C422.538 508.876 425.131 501.936 425.131 492.585C425.131 477.874 419.365 470.622 407.668 470.622ZM403.209 502.518H402.421V484.835C402.977 484.757 403.539 484.722 404.101 484.731C408.56 484.731 410.551 487.308 410.551 493.043C410.551 499.733 408.373 502.518 403.209 502.518Z" fill="black"/>
<path d="M457.754 522.299H444.957V470.622H430.087V536.907H457.754V522.299Z" fill="black"/>
<path d="M463.105 536.907H495.147V522.299H477.29V510.975H495.147V496.367H477.29V485.438H495.147V470.622H463.105V536.907Z" fill="black"/>
<path d="M227.629 563.317C226.493 562.917 225.337 562.577 224.165 562.299C223.137 562.097 222.13 561.798 221.158 561.405C220.868 561.299 220.618 561.107 220.44 560.855C220.262 560.602 220.165 560.301 220.163 559.992C220.16 559.682 220.239 559.376 220.392 559.106C220.545 558.837 220.767 558.612 221.034 558.455C221.773 558.012 222.62 557.782 223.481 557.79C225.286 557.82 227.052 558.321 228.604 559.244L229.91 556.003C228.999 555.442 228.005 555.029 226.965 554.777C225.831 554.502 224.669 554.362 223.502 554.361C222.04 554.316 220.585 554.578 219.229 555.13C218.177 555.556 217.269 556.277 216.616 557.208C216.038 558.074 215.734 559.096 215.745 560.138C215.686 561.206 216.026 562.258 216.699 563.088C217.321 563.811 218.112 564.368 219.001 564.709C220.135 565.111 221.291 565.444 222.465 565.707C223.166 565.863 223.858 566.057 224.539 566.288C225.022 566.427 225.473 566.66 225.866 566.974C226.031 567.105 226.164 567.273 226.254 567.464C226.344 567.655 226.389 567.864 226.385 568.075C226.384 568.371 226.302 568.661 226.149 568.914C225.995 569.167 225.775 569.373 225.514 569.509C224.681 569.933 223.748 570.12 222.817 570.049C221.711 570.051 220.612 569.876 219.561 569.53C218.552 569.223 217.599 568.753 216.741 568.138L215.289 571.358C216.279 572.066 217.39 572.587 218.566 572.896C219.914 573.288 221.31 573.49 222.714 573.499C224.182 573.531 225.641 573.27 227.007 572.73C228.07 572.303 228.99 571.582 229.661 570.652C230.236 569.799 230.54 568.792 230.532 567.764C230.601 566.701 230.259 565.652 229.578 564.834C229.048 564.191 228.382 563.673 227.629 563.317Z" fill="black"/>
<path d="M249.861 564.938C249.978 566.279 249.602 567.616 248.804 568.699C248.417 569.114 247.942 569.438 247.415 569.646C246.888 569.854 246.321 569.943 245.755 569.904C243.017 569.904 241.607 568.262 241.607 564.938V554.756H237.376V565.146C237.376 567.364 238.256 569.491 239.821 571.06C241.387 572.628 243.51 573.509 245.724 573.509C247.938 573.509 250.061 572.628 251.627 571.06C253.192 569.491 254.072 567.364 254.072 565.146V554.756H249.924L249.861 564.938Z" fill="black"/>
<path d="M274.355 555.587C273.008 555.001 271.55 554.717 270.082 554.756H262.119V573.229H266.37V568.179H270.082C271.548 568.215 273.004 567.938 274.355 567.369C275.488 566.892 276.455 566.089 277.134 565.062C277.773 563.984 278.11 562.753 278.11 561.499C278.11 560.245 277.773 559.014 277.134 557.935C276.455 556.899 275.489 556.083 274.355 555.587ZM272.779 563.899C271.932 564.512 270.896 564.806 269.854 564.73H266.37V558.33H269.854C270.896 558.254 271.932 558.548 272.779 559.161C273.117 559.455 273.384 559.824 273.556 560.239C273.729 560.653 273.804 561.103 273.774 561.551C273.787 561.979 273.705 562.404 273.533 562.796C273.36 563.188 273.103 563.537 272.779 563.816V563.899Z" fill="black"/>
<path d="M289.204 565.54H297.749V562.195H289.204V558.185H298.89V554.756H284.953V573.229H299.242V569.8H289.204V565.54Z" fill="black"/>
<path d="M321.454 565.021C322.129 563.962 322.469 562.723 322.429 561.468C322.465 560.206 322.126 558.962 321.454 557.894C320.775 556.867 319.808 556.064 318.675 555.587C317.368 555.016 315.953 554.733 314.527 554.756H306.439V573.229H310.711V568.179H314.734L318.302 573.312H322.885L318.737 567.39C319.846 566.871 320.788 566.05 321.454 565.021ZM317.12 563.837C316.276 564.457 315.24 564.759 314.195 564.688H310.711V558.247H314.195C315.237 558.171 316.273 558.465 317.12 559.078C317.434 559.389 317.683 559.76 317.853 560.168C318.024 560.577 318.111 561.015 318.111 561.457C318.111 561.9 318.024 562.338 317.853 562.746C317.683 563.155 317.434 563.525 317.12 563.837Z" fill="black"/>
<path d="M346.86 554.756L340.057 566.247L333.151 554.756H329.625V573.229H333.628V562.382L339.041 571.275H340.949L346.383 562.153L346.424 573.229H350.406L350.365 554.756H346.86Z" fill="black"/>
<path d="M364.509 554.756L356.214 573.229H360.569L362.207 569.281H370.731L372.37 573.229H376.953L368.657 554.756H364.509ZM363.659 566.039L366.583 558.953L369.507 566.039H363.659Z" fill="black"/>
<path d="M397.692 565.021C398.374 563.964 398.722 562.726 398.688 561.468C398.714 560.207 398.376 558.966 397.713 557.894C397.028 556.872 396.063 556.071 394.934 555.587C393.594 555.003 392.143 554.72 390.682 554.756H382.698V573.229H386.846V568.179H390.786L394.333 573.312H398.916L394.768 567.39C395.953 566.904 396.97 566.081 397.692 565.021ZM393.358 563.836C392.514 564.457 391.478 564.759 390.433 564.688H386.949V558.247H390.433C391.475 558.17 392.511 558.465 393.358 559.078C393.672 559.389 393.921 559.76 394.092 560.168C394.262 560.577 394.349 561.015 394.349 561.457C394.349 561.9 394.262 562.338 394.092 562.746C393.921 563.155 393.672 563.525 393.358 563.836Z" fill="black"/>
<path d="M422.932 554.756H418.204L410.032 563.4V554.756H405.801V573.229H410.032V568.553L412.5 565.977L418.411 573.229H423.388L415.3 562.985L422.932 554.756Z" fill="black"/>
<path d="M433.343 565.54H441.909V562.195H433.343V558.185H443.049V554.756H429.113V573.229H443.381V569.8H433.343V565.54Z" fill="black"/>
<path d="M448.525 558.247H454.415V573.229H458.687V558.247H464.598V554.756H448.525V558.247Z" fill="black"/>
</svg>
