<svg width="120" height="40" viewBox="0 0 120 40" fill="none" xmlns="http://www.w3.org/2000/svg">
<path d="M14.1965 8.49844C14.1965 2.8436 11.9781 0 7.47733 0H0V25.8103H5.76162V17.8855C8.61848 17.7724 9.99903 17.3846 11.2918 16.3829C13.199 14.8319 14.1965 12.1337 14.1965 8.49844ZM5.76162 12.4003H5.45038V5.52562C5.66716 5.49519 5.88593 5.48167 6.10475 5.48521C7.82047 5.48521 8.58654 6.48692 8.58654 8.71655C8.58654 11.3178 7.74067 12.4003 5.76162 12.4003Z" fill="#5C5C4A"/>
<path d="M21.8256 0H16.1039V25.77H21.8256V0Z" fill="#5C5C4A"/>
<path d="M30.9865 16.5687C30.9592 13.5498 30.7674 10.5347 30.4119 7.53712L30.372 7.18167H30.6433C30.9102 9.40074 31.3424 11.5962 31.9361 13.7494L35.5272 25.77H41.3606V0H35.9022V8.30455C35.9022 9.11238 36.2454 13.3697 36.5566 15.6882C36.6284 16.2294 36.7082 16.803 36.78 17.3846V17.732H36.5566L36.5167 17.425L36.2055 15.7205C35.7506 13.0546 35.5192 11.7863 34.8329 8.96698L32.5825 0H25.4882V25.8103H30.9466L30.9865 16.5687Z" fill="#5C5C4A"/>
<path d="M56.1 0H47.1225L42.9648 25.8103H48.8062L49.7559 19.6627H53.3469L54.3364 25.8103H60.2497L56.1 0ZM50.2187 14.1775L51.1763 7.9168C51.288 7.26245 51.4078 5.63871 51.4477 4.68546H51.6312C51.711 6.03454 51.7908 6.88277 51.9424 7.9168L52.9319 14.1775H50.2187Z" fill="#5C5C4A"/>
<path d="M69.3311 0H61.8538V25.8103H67.6154V17.8855C70.4802 17.7724 71.8528 17.3846 73.1535 16.3829C75.0608 14.8722 76.0503 12.1741 76.0503 8.53883C76.0503 2.81935 73.8398 0 69.3311 0ZM67.6154 12.4003H67.3121V5.52562C67.5263 5.49545 67.7423 5.48193 67.9585 5.48521C69.6742 5.48521 70.4403 6.48692 70.4403 8.71655C70.4643 11.3178 69.6024 12.4003 67.6154 12.4003Z" fill="#5C5C4A"/>
<path d="M85.4744 0H77.9971V25.8103H83.7587V17.8855C86.6235 17.7724 87.9961 17.3846 89.2889 16.3829C91.1961 14.8722 92.1936 12.1741 92.1936 8.53883C92.1936 2.81935 89.9752 0 85.4744 0ZM83.7587 12.4003H83.4554V5.52562C83.6695 5.49522 83.8857 5.4817 84.1018 5.48521C85.8175 5.48521 86.5837 6.48692 86.5837 8.71655C86.5837 11.3178 85.7457 12.4003 83.7587 12.4003Z" fill="#5C5C4A"/>
<path d="M104.746 20.0909H99.8227V0H94.101V25.77H104.746V20.0909Z" fill="#5C5C4A"/>
<path d="M106.805 25.77H119.134V20.0909H112.264V15.6882H119.134V10.0091H112.264V5.75987H119.134V0H106.805V25.77Z" fill="#5C5C4A"/>
<path d="M16.1994 36.0376C15.7624 35.8819 15.3176 35.7498 14.8668 35.6417C14.4711 35.5632 14.0837 35.4469 13.7097 35.2944C13.5981 35.2532 13.5017 35.1786 13.4332 35.0804C13.3648 34.9822 13.3276 34.8652 13.3266 34.745C13.3257 34.6244 13.3562 34.5056 13.415 34.4006C13.4738 34.2957 13.559 34.2083 13.6618 34.1472C13.9462 33.9751 14.272 33.8857 14.6034 33.8887C15.2979 33.9004 15.9773 34.0953 16.5745 34.4542L17.0773 33.194C16.7265 32.9761 16.3441 32.8153 15.9441 32.7174C15.5077 32.6105 15.0604 32.5562 14.6114 32.5558C14.0489 32.5384 13.4889 32.6402 12.9675 32.8547C12.5625 33.0203 12.2133 33.3008 11.962 33.6625C11.7395 33.9994 11.6227 34.3964 11.6269 34.8016C11.604 35.2169 11.7349 35.6258 11.994 35.9487C12.2333 36.2296 12.5376 36.4461 12.8797 36.5788C13.3159 36.7351 13.7609 36.8645 14.2124 36.9666C14.4823 37.0273 14.7487 37.1028 15.0104 37.1928C15.1963 37.2467 15.3699 37.3373 15.5211 37.4594C15.5847 37.5104 15.6358 37.5755 15.6704 37.6498C15.705 37.7241 15.7222 37.8054 15.7206 37.8875C15.7204 38.0026 15.689 38.1153 15.6299 38.2136C15.5708 38.3118 15.4863 38.3918 15.3855 38.4449C15.0652 38.6097 14.7063 38.6824 14.3481 38.655C13.9225 38.6557 13.4995 38.5875 13.0952 38.453C12.7067 38.3336 12.3401 38.1508 12.0099 37.9118L11.4513 39.1639C11.8323 39.4388 12.2596 39.6414 12.7122 39.7617C13.2309 39.9139 13.768 39.9927 14.3082 39.996C14.873 40.0086 15.4346 39.907 15.9601 39.6971C16.3692 39.531 16.7233 39.2509 16.9815 38.8892C17.2027 38.5578 17.3196 38.1663 17.3167 37.7663C17.343 37.3531 17.2116 36.9453 16.9496 36.6273C16.7454 36.3773 16.4893 36.1759 16.1994 36.0376Z" fill="#5C5C4A"/>
<path d="M24.754 36.6677C24.7987 37.189 24.654 37.7089 24.347 38.1299C24.1981 38.2913 24.0156 38.4171 23.8126 38.4981C23.6097 38.5792 23.3915 38.6134 23.1739 38.5984C22.1205 38.5984 21.5779 37.9602 21.5779 36.6677V32.7093H19.95V36.7485C19.95 37.6108 20.2884 38.4379 20.8907 39.0476C21.4931 39.6574 22.3101 40 23.1619 40C24.0138 40 24.8308 39.6574 25.4331 39.0476C26.0355 38.4379 26.3739 37.6108 26.3739 36.7485V32.7093H24.7779L24.754 36.6677Z" fill="#5C5C4A"/>
<path d="M34.1786 33.0325C33.6605 32.8046 33.0994 32.6943 32.5347 32.7094H29.4704V39.891H31.1063V37.928H32.5347C33.0986 37.9417 33.6588 37.8343 34.1786 37.6129C34.6148 37.4275 34.9869 37.1155 35.248 36.7162C35.4938 36.2969 35.6236 35.8184 35.6236 35.3308C35.6236 34.8432 35.4938 34.3646 35.248 33.9453C34.9867 33.5423 34.6151 33.2251 34.1786 33.0325ZM33.5722 36.2638C33.2464 36.5023 32.8479 36.6167 32.447 36.587H31.1063V34.0988H32.447C32.8479 34.0691 33.2464 34.1835 33.5722 34.422C33.7025 34.5364 33.805 34.6798 33.8714 34.8409C33.9379 35.0021 33.9666 35.1767 33.9552 35.351C33.9604 35.5174 33.9286 35.6829 33.8623 35.8352C33.7961 35.9876 33.6969 36.123 33.5722 36.2315V36.2638Z" fill="#5C5C4A"/>
<path d="M39.8922 36.902H43.18V35.6013H39.8922V34.0422H43.6189V32.7093H38.2563V39.8909H43.7546V38.558H39.8922V36.902Z" fill="#5C5C4A"/>
<path d="M52.3012 36.7002C52.5609 36.2885 52.6916 35.8069 52.6762 35.3187C52.6903 34.8282 52.5597 34.3445 52.3012 33.9293C52.0401 33.53 51.668 33.218 51.2319 33.0326C50.7288 32.8106 50.1845 32.7004 49.6358 32.7094H46.5236V39.8911H48.1675V37.9281H49.7156L51.0882 39.9234H52.8518L51.2558 37.6211C51.6826 37.4193 52.0448 37.1002 52.3012 36.7002ZM50.6334 36.2397C50.3086 36.481 49.9101 36.5983 49.5082 36.5709H48.1675V34.0666H49.5082C49.9091 34.0369 50.3076 34.1513 50.6334 34.3897C50.7542 34.5107 50.8502 34.6547 50.9157 34.8135C50.9812 34.9723 51.0149 35.1427 51.0149 35.3147C51.0149 35.4868 50.9812 35.6571 50.9157 35.8159C50.8502 35.9747 50.7542 36.1187 50.6334 36.2397Z" fill="#5C5C4A"/>
<path d="M62.0768 32.7093L59.4594 37.1766L56.802 32.7093H55.4454V39.8909H56.9855V35.674L59.0683 39.1316H59.8025L61.8933 35.5852L61.9092 39.8909H63.4414L63.4255 32.7093H62.0768Z" fill="#5C5C4A"/>
<path d="M68.8681 32.7093L65.676 39.8909H67.3518L67.9823 38.356H71.2621L71.8925 39.8909H73.6561L70.4641 32.7093H68.8681ZM68.5409 37.0958L69.6661 34.3411L70.7913 37.0958H68.5409Z" fill="#5C5C4A"/>
<path d="M81.6363 36.6999C81.8987 36.2891 82.0323 35.8076 82.0193 35.3185C82.0295 34.8284 81.8993 34.3458 81.6442 33.929C81.3807 33.532 81.0093 33.2206 80.5749 33.0323C80.0593 32.8054 79.501 32.6951 78.939 32.7092H75.8666V39.8909H77.4627V37.9278H78.9789L80.3435 39.9232H82.1071L80.5111 37.6208C80.9672 37.4321 81.3585 37.1119 81.6363 36.6999ZM79.9684 36.2395C79.6437 36.4807 79.2451 36.5981 78.8432 36.5707H77.5026V34.0664H78.8432C79.2442 34.0367 79.6426 34.1511 79.9684 34.3895C80.0893 34.5105 80.1853 34.6545 80.2508 34.8133C80.3163 34.9721 80.35 35.1424 80.35 35.3145C80.35 35.4866 80.3163 35.6569 80.2508 35.8157C80.1853 35.9744 80.0893 36.1185 79.9684 36.2395Z" fill="#5C5C4A"/>
<path d="M91.3478 32.7093H89.5283L86.3842 36.0699V32.7093H84.7562V39.8909H86.3842V38.0733L87.3338 37.0716L89.6081 39.8909H91.5233L88.4111 35.9083L91.3478 32.7093Z" fill="#5C5C4A"/>
<path d="M95.3541 36.902H98.6499V35.6013H95.3541V34.0422H99.0888V32.7093H93.7262V39.8909H99.2165V38.558H95.3541V36.902Z" fill="#5C5C4A"/>
<path d="M101.195 34.0664H103.461V39.8909H105.105V34.0664H107.38V32.7093H101.195V34.0664Z" fill="#5C5C4A"/>
</svg>
