<svg width="20" height="18" viewBox="0 0 20 18" fill="none" xmlns="http://www.w3.org/2000/svg">
<g clip-path="url(#clip0_25_1238)">
<path d="M13.9792 2.92539L17.1111 6.09648C17.2431 6.23008 17.2431 6.44805 17.1111 6.58164L9.52778 14.2598L6.30556 14.6219C5.875 14.6711 5.51042 14.3019 5.55903 13.866L5.91667 10.6035L13.5 2.92539C13.6319 2.7918 13.8472 2.7918 13.9792 2.92539ZM19.6042 2.12031L17.9097 0.404687C17.3819 -0.129687 16.5243 -0.129687 15.9931 0.404687L14.7639 1.64922C14.6319 1.78281 14.6319 2.00078 14.7639 2.13437L17.8958 5.30547C18.0278 5.43906 18.2431 5.43906 18.375 5.30547L19.6042 4.06094C20.1319 3.52305 20.1319 2.65469 19.6042 2.12031V2.12031ZM13.3333 12.1715V15.7504H2.22222V4.50039H10.2014C10.3125 4.50039 10.4167 4.45469 10.4965 4.37734L11.8854 2.97109C12.1493 2.70391 11.9618 2.25039 11.5903 2.25039H1.66667C0.746528 2.25039 0 3.00625 0 3.93789V16.3129C0 17.2445 0.746528 18.0004 1.66667 18.0004H13.8889C14.809 18.0004 15.5556 17.2445 15.5556 16.3129V10.7652C15.5556 10.3891 15.1076 10.2027 14.8438 10.4664L13.4549 11.8727C13.3785 11.9535 13.3333 12.059 13.3333 12.1715Z" fill="black"/>
</g>
<defs>
<clipPath id="clip0_25_1238">
<rect width="20" height="18" fill="white"/>
</clipPath>
</defs>
</svg>
